<svg id="Public_360_logotyp" data-name="Public 360 logotyp" xmlns="http://www.w3.org/2000/svg" viewBox="0 0 17.766 19">
  <path id="Path_69" data-name="Path 69" d="M200.742,529.742H200.6c-.977,0-1.955.008-2.932,0a5.084,5.084,0,0,0-2.1.428,5.135,5.135,0,0,0-3.207,4,4.944,4.944,0,0,0,1.3,4.348,5.3,5.3,0,0,0,3.155,1.7,5.558,5.558,0,0,0,3.44-.558,5.3,5.3,0,0,0,1.628-1.223,5.39,5.39,0,0,0,1.206-2.26,5.334,5.334,0,0,0,.118-1.456c-.015-.639,0-1.279,0-1.919v-.658h.163q1.6,0,3.21.006a.19.19,0,0,0,.185-.1q.7-1.1,1.412-2.187c.022-.034.041-.069.072-.121h-.15q-2.376,0-4.752,0c-.11,0-.143-.027-.143-.136,0-.849,0-1.7,0-2.548a3.95,3.95,0,0,1,.222-1.51,2.785,2.785,0,0,1,2.265-1.818,3.008,3.008,0,0,1,2.476.688l.11.094,1.76-1.674c-.107-.1-.2-.2-.3-.285a5,5,0,0,0-2.518-1.178,5.559,5.559,0,0,0-3.306.4A5.736,5.736,0,0,0,202.152,523a5,5,0,0,0-1.255,2.359,8.137,8.137,0,0,0-.161,1.883c0,.778,0,1.557.006,2.335v.17m0,2.4c0,.054.008.1.008.149,0,.785-.005,1.571,0,2.357a3.683,3.683,0,0,1-.16,1.093,2.871,2.871,0,0,1-1.262,1.725,2.949,2.949,0,0,1-2.621.222,2.793,2.793,0,0,1-1.92-3.115,2.863,2.863,0,0,1,1.311-1.966,2.93,2.93,0,0,1,1.6-.465c.688.01,1.375,0,2.063,0h.974" transform="translate(-192.284 -521.286)" fill="#e42034"/>
</svg>
