<svg xmlns="http://www.w3.org/2000/svg" viewBox="0 0 62.3 56.6"><defs><style>.cls-1{fill:#2c4476;}.cls-2{fill:#fff;}.cls-3{fill:#f2cd26;}</style></defs><g id="Layer_2" data-name="Layer 2"><g id="Layer_1-2" data-name="Layer 1"><path class="cls-1" d="M62.3,51.4a5.12,5.12,0,0,1-5.1,5.1H5.1A5.12,5.12,0,0,1,0,51.4H0V5.1A5.12,5.12,0,0,1,5.1,0H57.2a5.12,5.12,0,0,1,5.1,5.1Z"/><path class="cls-2" d="M23.4,56.6V47.1a7,7,0,0,1,7-7H50.6a7,7,0,0,1,7,7v9.5"/><path class="cls-2" d="M27.8,28.9a9.41,9.41,0,0,1,2.5-4.3,11.36,11.36,0,0,1,4.3-2.5,23.53,23.53,0,0,1,6.3-.8,17.27,17.27,0,0,1,5.4.7,11.33,11.33,0,0,1,4,2.3A8.83,8.83,0,0,1,53,28.7a22.53,22.53,0,0,1,.7,6.2V50.3a4.48,4.48,0,0,1-.9,3,3.1,3.1,0,0,1-2.4,1,2.64,2.64,0,0,1-2.3-1,4.86,4.86,0,0,1-.9-3V34.5c0-2.7-.5-4.8-1.6-6.1s-2.8-2-5.4-2a7.83,7.83,0,0,0-4.3,1,4.91,4.91,0,0,0-2.1,2.8,14.41,14.41,0,0,0-.6,4.5V50.4a4,4,0,0,1-.9,2.9,3.31,3.31,0,0,1-2.4,1,2.9,2.9,0,0,1-2.3-1,4,4,0,0,1-.9-2.9V35.1C27.1,32.7,27.3,30.7,27.8,28.9Z"/><polygon class="cls-3" points="39.1 1.8 40.6 6.1 45.5 6.1 41.5 8.8 43 13 39.1 10.4 35.1 13 36.7 8.8 32.7 6.1 37.6 6.1 39.1 1.8"/><polygon class="cls-3" points="54.3 4.6 55.8 8.9 60.7 8.9 56.7 11.5 58.2 15.8 54.3 13.2 50.3 15.8 51.8 11.5 47.9 8.9 52.8 8.9 54.3 4.6"/><polygon class="cls-3" points="10.7 43.9 12.2 48.2 17.1 48.2 13.1 50.8 14.6 55.1 10.7 52.5 6.7 55.1 8.3 50.8 4.3 48.2 9.2 48.2 10.7 43.9"/><polygon class="cls-3" points="14.2 16.3 15.8 20.6 20.6 20.6 16.7 23.2 18.2 27.5 14.2 24.8 10.3 27.5 11.8 23.2 7.9 20.6 12.8 20.6 14.2 16.3"/><polygon class="cls-3" points="25 6.1 26.5 10.4 31.4 10.3 27.4 13 29 17.2 25 14.6 21.1 17.2 22.6 13 18.6 10.3 23.5 10.4 25 6.1"/><polygon class="cls-3" points="9.2 30.6 10.8 34.8 15.7 34.8 11.7 37.5 13.2 41.7 9.2 39.1 5.3 41.7 6.8 37.5 2.9 34.8 7.7 34.8 9.2 30.6"/></g></g></svg>