<?xml version="1.0" standalone="no"?>
<!DOCTYPE svg PUBLIC "-//W3C//DTD SVG 20010904//EN"
 "http://www.w3.org/TR/2001/REC-SVG-20010904/DTD/svg10.dtd">
<svg version="1.0" xmlns="http://www.w3.org/2000/svg"
 width="250.000000pt" height="250.000000pt" viewBox="0 0 250.000000 250.000000"
 preserveAspectRatio="xMidYMid meet">

<g transform="translate(0.000000,250.000000) scale(0.100000,-0.100000)"
fill="#3e3a94" stroke="none">
<path d="M151 2483 c-24 -9 -60 -32 -81 -53 -74 -74 -70 -11 -70 -1180 0
-1169 -4 -1106 70 -1180 74 -74 11 -70 1180 -70 1169 0 1106 -4 1180 70 74 74
70 11 70 1180 0 1169 4 1106 -70 1180 -74 74 -11 70 -1184 69 -921 0 -1056 -2
-1095 -16z m1749 -383 c8 -15 0 -46 -40 -152 -28 -73 -58 -139 -67 -145 -13
-10 -111 -13 -408 -13 -291 0 -394 -3 -403 -12 -15 -15 -17 -320 -2 -349 10
-18 24 -19 311 -19 300 0 339 -4 339 -35 0 -27 -101 -270 -118 -283 -12 -9
-82 -12 -269 -12 -239 0 -253 -1 -263 -19 -6 -13 -10 -138 -10 -340 0 -306 -1
-321 -19 -331 -11 -5 -85 -10 -170 -10 -123 0 -152 3 -165 16 -14 14 -16 91
-16 698 l0 682 66 164 c36 91 71 168 78 172 6 4 266 8 578 8 554 0 568 0 578
-20z"/>
</g>
</svg>
