<?xml version="1.0" encoding="utf-8"?>
<!-- Generator: Adobe Illustrator 25.2.1, SVG Export Plug-In . SVG Version: 6.00 Build 0)  -->
<svg version="1.1" id="Layer_1" xmlns="http://www.w3.org/2000/svg" xmlns:xlink="http://www.w3.org/1999/xlink" x="0px" y="0px"
	 viewBox="0 0 20 20" style="enable-background:new 0 0 20 20;" xml:space="preserve">
<style type="text/css">
	.st0{fill:#1AA14A;}
</style>
<path class="st0" d="M1.5,14.3c-2-2.4-1.9-5.8,0.1-8.1c1.5-1.6,3.4-2.8,5.6-3.3C10.1,2.1,13.1,2,16,2.5c1.2,0.2,2.4,0.4,3.5,0.7
	l0.3,0.1c0,0.2-0.2,0.2-0.3,0.3c-1.1,0.7-2,1.5-2.9,2.5c-1.3,1.4-2.1,3.1-2.4,5c-0.2,1.3-0.7,2.6-1.3,3.8c-0.8,1.5-2.3,2.6-4,2.9
	c-1.5,0.2-3.1-0.2-4.4-1c-0.5-0.3-0.9-0.6-1.3-1c0,0,0-0.1,0-0.1c1.4-2.5,3.2-4.7,5.3-6.6c0.5-0.5,1-0.9,1.6-1.2
	c0.1-0.1,0.3-0.2,0.2-0.4S10.1,7.3,10,7.3C8.8,7.7,7.7,8.2,6.7,8.9c-1.9,1.4-3.6,3.1-4.9,5L1.5,14.3L1.5,14.3z"/>
</svg>
