<svg xmlns="http://www.w3.org/2000/svg" viewBox="0 0 566.6 232.76"><defs><style>.cls-1{fill:#00953b;}.cls-2{fill:#006937;}.cls-3{fill:#93d500;}</style></defs><g id="Layer_2" data-name="Layer 2"><g id="Lager_1" data-name="Lager 1"><path class="cls-1" d="M78.84,41.92H57.75V90.64c0,11.52-7.2,19-18.33,19s-18.33-7.45-18.33-19V41.92H0V90.77c0,21.44,17,37.61,39.42,37.61s39.42-16.17,39.42-37.61Z"/><path class="cls-1" d="M184.23,127V51.11A9.87,9.87,0,0,0,174.4,41a9.66,9.66,0,0,0-8.5,4.18l-27,40-27-40A9.4,9.4,0,0,0,103.6,41,10,10,0,0,0,93.51,51.36V127H113.7V82.15l16.93,25.13a10.08,10.08,0,0,0,8.24,4.69,9.66,9.66,0,0,0,8.11-4.56l17.07-25.25V127Z"/><path class="cls-1" d="M199.33,116.35A10.56,10.56,0,0,0,209.81,127h53V109.22H220.42V92.59H249.6a8.73,8.73,0,0,0,9.06-8.8A8.84,8.84,0,0,0,249.6,75H220.42V59.65h42.5V41.92H209.81a10.56,10.56,0,0,0-10.48,10.61Z"/><path class="cls-1" d="M126.56,145c-25.19,0-44.2,18.89-44.2,43.94,0,25.39,18.59,43.82,44.2,43.82,12.57,0,23.94-4.57,32-12.85a43.91,43.91,0,0,0,12.18-31C170.76,163.89,151.76,145,126.56,145Zm0,69.12c-14,0-23.1-9.88-23.1-25.18s9.07-25.3,23.1-25.3,23.11,9.93,23.11,25.3S140.6,214.12,126.56,214.12Z"/><path class="cls-1" d="M273.64,231.34V155.48a9.86,9.86,0,0,0-9.84-10.09c-3.76,0-6.61,1.4-8.5,4.17l-27,40-27-40a9.38,9.38,0,0,0-8.24-4.17,10,10,0,0,0-10.09,10.35v75.6H203.1V186.53L220,211.66a10.07,10.07,0,0,0,8.24,4.69,9.7,9.7,0,0,0,8.11-4.56l17.07-25.26v44.81Z"/><path class="cls-1" d="M379.45,231.34V155.48a9.86,9.86,0,0,0-9.84-10.09,9.65,9.65,0,0,0-8.5,4.17l-27,40-27-40a9.38,9.38,0,0,0-8.24-4.17,10,10,0,0,0-10.08,10.35v75.6h20.18V186.53l16.93,25.13a10.07,10.07,0,0,0,8.24,4.69,9.7,9.7,0,0,0,8.11-4.56l17.07-25.26v44.81Z"/><path class="cls-1" d="M472.25,146.29H451.16V195c0,11.53-7.2,19-18.33,19s-18.33-7.45-18.33-19V146.29H393.41v48.86c0,21.44,16.94,37.61,39.42,37.61s39.42-16.17,39.42-37.61Z"/><path class="cls-1" d="M557.47,231.66a10.66,10.66,0,0,0,9.13-10.48V146H545.76v50l-.88-1c-15.25-18-25.26-29.35-34.93-40.32l-5.11-5.8a9.55,9.55,0,0,0-8-3.7,10.75,10.75,0,0,0-10.61,10.61V231H507V182.53l40.79,45.81A10.51,10.51,0,0,0,557.47,231.66Z"/><rect class="cls-1" y="145.97" width="21.09" height="85.04"/><path class="cls-1" d="M29.48,194.68,58.94,231H84.33L48.39,187.19,83,146H57.64L29.08,181.18h0l-.1.14A10.58,10.58,0,0,0,29.48,194.68Z"/><path class="cls-1" d="M318.42,47a9.58,9.58,0,0,0-9.1-6,9.23,9.23,0,0,0-1.18.09,39.31,39.31,0,0,1,3.71-8.57c9.1,5,15.79.92,19-5.31,4.1-8.07,0-15.36,14.94-24.74-31.36-9-52.63,8.32-41,24.44,9.2-13.59,18.92-15.55,18.92-15.55s.64-.22.87.25-.34.76-.34.76-12.09,6.2-24,34.48c0,.06-.05.12-.07.17l-33,79.93h20.47l5.94-15.89H325L331,127h20.48ZM299.17,95.79l10.15-27.53,10.15,27.53Z"/><path class="cls-1" d="M319.38,11.59a.61.61,0,1,1-.61-.61A.6.6,0,0,1,319.38,11.59Z"/><path class="cls-2" d="M557.47,231.66a10.65,10.65,0,0,0,9.13-10.48V179.62a102.15,102.15,0,0,0-31.1,34.87l12.34,13.85A10.48,10.48,0,0,0,557.47,231.66Z"/><path class="cls-2" d="M126.56,232.76c12.57,0,23.94-4.57,32-12.85a43.92,43.92,0,0,0,12.19-31A45.83,45.83,0,0,0,167.6,172a101.78,101.78,0,0,0-79.8-4.84,45,45,0,0,0-5.43,21.75C82.37,214.33,101,232.76,126.56,232.76Zm0-69.12c14,0,23.11,9.93,23.11,25.3s-9.07,25.18-23.11,25.18-23.1-9.88-23.1-25.18S112.53,163.64,126.56,163.64Z"/><path class="cls-2" d="M182.91,181.51v49.83H203.1V201.61A102.53,102.53,0,0,0,182.91,181.51Z"/><path class="cls-2" d="M84.34,231,51,190.32a102.08,102.08,0,0,0-12.72,15.16L58.94,231Z"/><path class="cls-3" d="M308.91,231.34V186.53l16.93,25.13a10.07,10.07,0,0,0,8.24,4.69,9.72,9.72,0,0,0,8.12-4.56l17.06-25.26v44.81h20.19v-69.9c-2-.11-4-.18-6-.18a102.06,102.06,0,0,0-21.84,2.37l-17.53,26-10.35-15.33a102.05,102.05,0,0,0-35,32.56v24.53Z"/><path class="cls-3" d="M432.83,232.76c13.32,0,24.7-5.69,31.76-14.78a101.41,101.41,0,0,0-13.54-20.66c-.9,10.2-7.85,16.67-18.22,16.67-11.13,0-18.33-7.45-18.33-19v-25.1a100.25,100.25,0,0,0-21.09-6.68v31.92C393.41,216.59,410.36,232.76,432.83,232.76Z"/><path class="cls-3" d="M78.84,90.77V41.92H57.75V90.64c0,.46,0,.91,0,1.36a101,101,0,0,0,18.74,12.19A37.84,37.84,0,0,0,78.84,90.77Z"/><path class="cls-3" d="M174.4,41a9.66,9.66,0,0,0-8.5,4.18l-27,40-27-40A9.39,9.39,0,0,0,103.6,41,10,10,0,0,0,93.51,51.36v59.56a100.4,100.4,0,0,0,20.19,3.73V82.15l16.93,25.13a10.08,10.08,0,0,0,8.24,4.69,9.66,9.66,0,0,0,8.11-4.56l17.07-25.25v23.77a101.39,101.39,0,0,0,20.18-12.19V51.11A9.87,9.87,0,0,0,174.4,41Z"/><path class="cls-3" d="M199.33,52.53V79.34a101.38,101.38,0,0,0,20.23-37.42h-9.75A10.56,10.56,0,0,0,199.33,52.53Z"/><path class="cls-2" d="M309.32,41a8.94,8.94,0,0,0-1.17.09,38.36,38.36,0,0,1,3.71-8.57c9.09,5,15.79.92,18.95-5.31,4.1-8.07,0-15.36,14.94-24.74-31.36-9-52.63,8.32-41,24.44,9.2-13.59,18.92-15.55,18.92-15.55s.64-.22.88.25-.35.76-.35.76-12.09,6.2-24,34.48c0,.06-.05.12-.07.17L290,71.38a102.18,102.18,0,0,0,12.64,14.89l6.64-18,10.15,27.53H314a101.14,101.14,0,0,0,30.82,15.11L318.42,47A9.58,9.58,0,0,0,309.32,41Z"/></g></g></svg>